<svg aria-hidden="true" style="position:absolute;width:0;height:0;overflow:hidden" xmlns="http://www.w3.org/2000/svg">
  <defs>
    <symbol id="icon-ac" viewBox="0 0 32 32">
      <path d="M14.408 3.282c-2.717.477-4.776 2.51-5.317 5.25-.05.248-.078.576-.066.73.056.675.781 1.066 1.414.76.336-.163.475-.411.634-1.122.229-1.034.584-1.718 1.227-2.371.859-.874 2.003-1.333 3.272-1.318h.043c.696 0 1.352.173 1.926.478l-.022-.011c1.715.835 2.726 2.768 2.406 4.602-.306 1.754-1.445 3.018-3.218 3.574l-.469.147-15.581.053-.216.144a.983.983 0 0 0 .1 1.689l.005.003.237.115 15.562-.03.626-.17c2.683-.726 4.573-2.922 4.845-5.63a6.187 6.187 0 0 0-.63-3.357l.016.036a6.532 6.532 0 0 0-4.476-3.515l-.043-.008c-.552-.12-1.722-.144-2.277-.046zm11.965 8.809c-2.078.282-3.77 1.787-4.243 3.776-.142.602-.16 1.323-.037 1.554a1.034 1.034 0 0 0 1.483.364l-.004.002c.274-.19.408-.488.45-.998.061-.722.293-1.25.781-1.77.552-.592 1.179-.899 1.97-.968 1.394-.12 2.768.848 3.117 2.197.394 1.526-.478 3.046-2.05 3.573-.282.094-.85.101-13.733.126-12.611.024-13.451.032-13.61.118-.643.352-.656 1.269-.024 1.698l.194.13 10.186.027c7.27.019 10.234.045 10.347.086.685.253 1.237.714 1.51 1.258.75 1.496-.178 3.264-1.853 3.523-1.314.203-2.542-.661-2.846-2.003-.098-.432-.288-.704-.592-.842-.653-.298-1.419.166-1.419.859 0 .546.328 1.442.758 2.07.576.842 1.568 1.522 2.629 1.802.568.15 1.723.138 2.293-.026 2.749-.784 4.101-3.738 2.851-6.23l-.245-.49 1.736-.021c1.669-.021 1.758-.027 2.254-.16a5.033 5.033 0 0 0 3.536-3.403l.009-.035c.13-.426.144-.547.144-1.322 0-.778-.014-.896-.147-1.334a5.023 5.023 0 0 0-3.933-3.516l-.03-.004a5.972 5.972 0 0 0-1.509-.039l.025-.002z"/>
    </symbol>
    <symbol id="icon-air-conditioner" viewBox="0 0 32 32">
      <path d="M2.587.038a4.684 4.684 0 0 0-1.061.469l.021-.012A3.822 3.822 0 0 0 .19 2.134l-.009.025-.154.373-.014 6.504c-.013 5.838-.006 6.534.07 6.8.315 1.09 1.269 2.04 2.397 2.386.307.094.854.098 13.52.098s13.213-.003 13.52-.098c1.128-.346 2.082-1.296 2.397-2.386.077-.266.083-.962.07-6.8l-.014-6.504-.154-.373a3.646 3.646 0 0 0-1.955-1.97L29.84.18l-.373-.154L16.08.018C8.717.015 2.645.023 2.587.037zm26.551 2.469c.109.074.262.227.344.341l.146.21v12.17l-.131.186a1.053 1.053 0 0 1-.502.426l-.007.002c-.192.091-.341.102-1.427.104l-1.213.002-.002-1.8c0-1.84-.032-2.261-.214-2.779-.352-1.002-1.307-1.869-2.398-2.176-.328-.094-.726-.099-7.733-.099-6.982 0-7.405.006-7.728.098a3.615 3.615 0 0 0-2.494 2.429l-.007.025c-.066.221-.086.672-.104 2.288l-.022 2.014-1.208-.002c-1.058-.002-1.237-.014-1.424-.099-.28-.128-.547-.408-.613-.643-.034-.12-.053-2.376-.053-6.098 0-4.856.013-5.939.072-6.082.133-.259.336-.466.585-.6l.007-.004c.133-.058 2.442-.069 13.046-.059l12.883.011.197.134zm-5.959 9.039c.169.053.314.14.434.253.326.339.334.389.334 2.36v1.789H8.053l.002-1.8c.002-1.992.01-2.05.358-2.378.328-.307.029-.296 7.565-.299 5.96-.003 6.973.008 7.202.075zM8.792 21.714c-.16.059-.298.142-.418.245l.002-.002c-.405.346-.4.322-.429 2.203l-.027 1.68-.146.312c-.352.75-1.03 1.208-1.794 1.208-.685 0-1.182.28-1.37.773a1.173 1.173 0 0 0 .555 1.48l.007.003c.29.154.304.155.934.125.718-.034 1.099-.122 1.67-.384a4.412 4.412 0 0 0 2.514-3.415l.002-.022c.035-.27.053-1.045.042-1.92-.018-1.579-.026-1.632-.33-1.965-.264-.293-.81-.437-1.214-.322zm6.827.011a1.314 1.314 0 0 0-.626.499l-.003.005-.138.198-.014 4.376-.013 4.376.123.237c.077.147.222.304.381.411.234.158.291.173.67.173s.437-.014.67-.173a1.21 1.21 0 0 0 .376-.404l.126-.239v-4.318c0-3.898-.008-4.334-.088-4.501a1.426 1.426 0 0 0-.556-.58l-.007-.004a1.37 1.37 0 0 0-.912-.053l.01-.002zm6.864.008a1.203 1.203 0 0 0-.774.812l-.002.008c-.088.315-.067 3.005.026 3.542a4.376 4.376 0 0 0 2.463 3.25l.027.011c.571.262.952.35 1.67.384.63.03.645.029.934-.125.394-.208.6-.514.63-.934.058-.805-.504-1.322-1.438-1.322-.387 0-.805-.138-1.106-.363a1.995 1.995 0 0 1-.683-.832l-.005-.013-.146-.312-.027-1.68c-.029-1.882-.024-1.858-.427-2.203a1.133 1.133 0 0 0-1.15-.222l.008-.003z"/>
    </symbol>
    <symbol id="icon-alcove" viewBox="0 0 46 32">
      <path d="M17.295.071c-.357.11-.647.297-.952.615-.168.175-.507.495-.757.711l-.451.394-13.269.075-.354.175C.973 2.306.49 2.774.251 3.259l-.214.435V27.4l.215.325c.149.224.336.381.609.507l.395.184 6.171.003.17.56c.691 2.277 3.335 3.571 5.649 2.767 1.27-.442 2.358-1.525 2.707-2.691l.162-.542c.024-.075 1.718-.095 8.137-.095h8.106l.047.291c.131.824 1.057 2.081 1.909 2.594.827.497 1.353.645 2.331.651.726.005.968-.025 1.409-.173a4.455 4.455 0 0 0 2.852-2.876l.009-.031.131-.419 1.704-.041c1.021-.024 1.785-.075 1.905-.128.33-.143.766-.571.914-.897.127-.281.138-.582.139-3.771 0-3.685-.014-3.856-.379-4.613-.263-.541-.846-1.123-1.426-1.425-.283-.147-1.069-.482-1.745-.745l-1.229-.477-1.467-3.361c-.807-1.848-1.549-3.503-1.649-3.677-.229-.394-.819-.953-1.231-1.163-.697-.355-1.022-.387-3.878-.387h-2.688v-.991h10.101l.339-.171c.671-.339 1.006-1.179.731-1.835-.168-.402-2.36-3.599-2.734-3.987a3.047 3.047 0 0 0-.755-.525L37.68.253l-.465-.216-9.867-.013C21.922.017 17.396.038 17.291.07zm19.924 1.516c.266.162 2.663 3.629 2.59 3.746-.03.049-1.925.075-5.381.075-3.512 0-5.384.027-5.48.079-.394.21-.377-.288-.377 11.003v10.48h-12.4l-.174-.539c-.565-1.758-2.365-3.047-4.242-3.04-1.848.007-3.637 1.305-4.157 3.018l-.17.56-5.981.001v-3.2H2.59v-1.371H1.447v-9.152c0-9.147 0-9.151.159-9.435.088-.155.269-.349.4-.429.231-.139.518-.147 6.907-.184l6.666-.038.343-.205c.189-.112.634-.498.99-.857l.646-.653h9.715c9.282 0 9.727.007 9.945.139zM4.762 7.382a1.753 1.753 0 0 0-.87.834c-.152.297-.159.426-.159 2.848l.001 2.536.229.399c.169.294.334.459.629.629l.399.229h9.904l.399-.229c.295-.169.459-.335.629-.629l.229-.399.001-2.536c0-2.343-.01-2.559-.144-2.821a1.92 1.92 0 0 0-.873-.857l-.011-.005c-.286-.131-.613-.141-5.181-.141-4.576 0-4.895.009-5.181.141zm14.579.01c-.35.185-.73.64-.827.989-.046.166-.074 3.209-.074 7.976l-.001 7.707.198.235.198.234h7.063l.427-.368V8.419l-.163-.305a1.69 1.69 0 0 0-.756-.749l-.01-.004c-.211-.106-.609-.122-3.009-.12-2.583.003-2.784.014-3.045.151zm-4.678 1.387c.099.143.118.491.118 2.269 0 1.776-.018 2.125-.118 2.269l-.119.169H5.342l-.119-.169c-.099-.144-.118-.493-.118-2.269 0-1.777.018-2.126.118-2.269l.119-.17h9.202l.119.17zm10.206-.049c.025.066.046 1.163.046 2.438v2.318h-5.029v-2.387c0-1.313.023-2.41.05-2.438.029-.029 1.139-.051 2.469-.051 2.134 0 2.423.015 2.464.121zm11.009.678c.235.131.491.35.6.514.186.282 2.76 6.096 2.76 6.235 0 .045-1.754.064-4.59.053l-4.591-.019-.019-3.529-.021-3.529 5.449.048.411.227zm-10.982 9.621.019 4.134h-5.03v-8.307l4.991.04.019 4.134zm16.705-.895c1.622.627 1.711.671 2.043.999.511.504.579.735.609 2.067l.026 1.2h-1.157v1.371h1.146l-.021 1.581-.021 1.582h-3.17l-.189-.559a5.21 5.21 0 0 0-.453-.977l.013.024c-.363-.566-1.105-1.218-1.744-1.533-1.765-.869-3.757-.547-5.13.827-.573.574-1.058 1.405-1.147 1.962l-.047.293h-2.342V17.6h10.202l1.379.534zm-28.572 6.944a2.888 2.888 0 0 1 1.416 1.395c.251.511.275.614.275 1.213 0 .569-.03.72-.23 1.146a3.005 3.005 0 0 1-2.244 1.723l-.017.002c-.898.158-1.918-.193-2.6-.895-.685-.704-.969-1.865-.682-2.777.271-.857 1.008-1.616 1.873-1.926.541-.194 1.67-.134 2.209.118zm24.954.024a3.306 3.306 0 0 1 1.382 1.345c.2.378.216.475.216 1.248 0 .809-.009.856-.258 1.314-1.158 2.136-4.24 2.086-5.302-.086-.278-.567-.346-1.415-.166-2.037.245-.841.952-1.582 1.817-1.902.631-.234 1.705-.179 2.311.117z"/>
    </symbol>
    <symbol id="icon-bed" viewBox="0 0 32 32">
      <path d="M7.526 5.016c-1.166.306-2.214 1.36-2.514 2.531-.101.394-.106.592-.106 3.605v3.189l-.278.141c-.997.499-1.885 1.477-2.35 2.586-.381.906-.374.811-.397 5.17-.024 4.333-.035 4.171.317 4.531.243.25.445.336.784.339l.036.001c.295 0 .563-.115.762-.302l-.001.001c.222-.202.293-.41.328-.96.029-.464.048-.539.155-.627.118-.096.486-.099 11.738-.099s11.619.003 11.738.099c.107.088.126.163.155.627.035.55.106.758.328.96.227.206.485.304.797.301l.046.001a.967.967 0 0 0 .737-.339l.001-.001c.352-.36.341-.2.317-4.533-.024-4.355-.018-4.266-.397-5.168-.466-1.109-1.354-2.086-2.35-2.586l-.278-.141v-3.189c0-3.013-.005-3.211-.106-3.605-.302-1.182-1.352-2.232-2.534-2.534-.408-.104-.59-.106-8.475-.102-7.789.002-8.07.005-8.451.106zm16.54 2.229c.299.147.654.531.742.802.074.226.133 3.443.062 3.413a32.968 32.968 0 0 1-1.172-.545l.674.303a3.293 3.293 0 0 0-.78-.274l-.023-.004c-.557-.093-5.792-.078-6.243.018a3.365 3.365 0 0 0-1.134.503l.011-.007-.202.133-.254-.163a3.157 3.157 0 0 0-1.167-.483l-.02-.003c-.478-.077-5.666-.075-6.13.003a3.473 3.473 0 0 0-.823.287l.02-.009-.494.24c-.059.027-.048-2.867.014-3.197.111-.53.505-.947 1.014-1.089l.01-.002c.226-.054 1.835-.066 7.962-.059l7.68.01.253.125zm-9.693 5.974c.248.114.315.184.427.451l.082.197H8.109l.056-.147c.106-.228.28-.41.496-.522l.006-.003c.126-.056.715-.072 2.826-.072 2.467 0 2.683.006 2.88.096zm8.949-.025c.228.111.408.295.511.52l.003.007.056.147h-6.773l.082-.197c.112-.267.179-.338.427-.451.197-.09.416-.098 2.867-.098 2.139-.002 2.69.013 2.827.072zm2.201 2.971c.702.126 1.499.666 1.893 1.28.096.149.235.43.31.626l.139.357.016 2.226.018 2.227H4.107v-2.043c0-1.227.022-2.17.058-2.36.205-1.133 1.238-2.139 2.395-2.333.074-.013 4.299-.026 9.39-.03 6.403-.005 9.354.011 9.573.051z"/>
    </symbol>
    <symbol id="icon-calendar" viewBox="0 0 32 32">
      <path d="M10.187 1.578c-.13.061-.242.137-.34.227l.001-.001c-.299.285-.326.389-.355 1.397l-.026.933-1.814.03c-2 .032-2.054.04-2.752.405a3.939 3.939 0 0 0-1.963 2.428l-.006.028c-.106.408-.107.594-.106 10.315.002 9.67.003 9.907.106 10.309.338 1.314 1.44 2.418 2.755 2.754.402.102.632.106 10.314.106s9.912-.003 10.314-.106c1.315-.336 2.418-1.44 2.755-2.754.102-.402.104-.638.106-10.309.002-9.722 0-9.907-.106-10.315a3.942 3.942 0 0 0-1.948-2.446l-.021-.01c-.698-.365-.752-.373-2.752-.405l-1.814-.03-.026-.933c-.029-1.008-.056-1.112-.355-1.397a1.228 1.228 0 0 0-1.638.001l.001-.001c-.301.285-.326.389-.355 1.397l-.027.933h-8.266l-.027-.933c-.029-1.008-.054-1.112-.355-1.397a1.282 1.282 0 0 0-1.306-.223l.009-.003zm-.694 5.889c.029 1.008.056 1.112.355 1.397.55.523 1.504.368 1.877-.304.069-.126.094-.36.115-1.093l.027-.934h8.266l.027.934c.029 1.008.054 1.112.355 1.397a1.228 1.228 0 0 0 1.638-.001l-.001.001c.299-.285.326-.389.355-1.397l.026-.934h1.547c1.51.002 1.554.003 1.826.126.342.155.658.488.792.837.094.245.102.427.102 2.451v2.186H5.2v-2.16c0-2.459.008-2.514.381-2.93.438-.488.632-.528 2.472-.518l1.414.008.026.934zM26.8 20.72c0 5.957-.003 6.197-.102 6.45-.155.37-.433.664-.782.834l-.009.004-.278.125h-9.6c-9.315 0-9.608-.003-9.864-.101a1.623 1.623 0 0 1-.833-.784l-.004-.01-.126-.278-.014-6.158c-.008-3.387-.003-6.189.011-6.227.022-.054 2.058-.066 10.814-.054l10.789.013v6.187z"/>
    </symbol>
    <symbol id="icon-cd" viewBox="0 0 32 32">
      <path d="M14.72 2.859c-1.77.213-3.034.578-4.507 1.298-1.446.709-2.344 1.354-3.523 2.533s-1.824 2.077-2.533 3.523a11.636 11.636 0 0 0-.939 2.504L3.2 12.8c-.296 1.189-.347 1.659-.347 3.2s.051 2.011.347 3.2c.23.928.496 1.645.957 2.587.709 1.446 1.354 2.344 2.533 3.523s2.077 1.824 3.523 2.533c.741.385 1.602.713 2.504.939l.083.018c1.189.296 1.659.347 3.2.347s2.011-.051 3.2-.347a13.673 13.673 0 0 0 4.913-2.387l-.033.024c.55-.414 1.942-1.806 2.357-2.357a13.477 13.477 0 0 0 2.602-6.001L29.05 18c.077-.464.098-.883.098-2 0-1.541-.051-2.011-.347-3.2a13.673 13.673 0 0 0-2.387-4.913l.024.033c-.414-.55-1.806-1.942-2.357-2.357-1.464-1.104-3.141-1.923-4.8-2.346-1.094-.28-1.621-.342-3.04-.362a27.312 27.312 0 0 0-1.562.004l.042-.001zm2.827 2.456c3.373.474 6.371 2.582 7.994 5.626a10.746 10.746 0 0 1 1.25 5.063c0 .996-.134 1.961-.384 2.877l.018-.076c-.906 3.31-3.277 5.979-6.419 7.222a10.749 10.749 0 0 1-4.018.765c-.926 0-1.824-.115-2.683-.331l.075.016c-3.141-.81-5.681-2.913-7.06-5.694l-.028-.063a10.107 10.107 0 0 1-1.076-4.573l.001-.155V16l-.001-.105c0-2.203.679-4.247 1.838-5.935l-.023.036c1.96-2.907 5.241-4.793 8.961-4.793.549 0 1.088.041 1.615.12l-.059-.007zm-2.398 2.207a8.53 8.53 0 0 0-6.873 4.884l-.022.052c-.454.99-.646 1.758-.744 2.966l-.064.784.157.302c.095.188.226.345.386.466l.003.002c.214.155.264.168.67.168.4 0 .461-.014.666-.157.374-.259.493-.525.541-1.221.115-1.637.666-2.918 1.726-4.029 1.074-1.122 2.478-1.752 4.174-1.872.696-.048.962-.166 1.221-.541.142-.205.157-.266.157-.661s-.014-.458-.157-.662c-.235-.339-.547-.499-1.01-.515l-.14-.001c-.244 0-.485.012-.722.036l.03-.002zm.069 4.02c-1.781.339-3.126 1.579-3.598 3.31-.163.603-.165 1.685-.002 2.294a4.683 4.683 0 0 0 3.202 3.227l.033.008c.605.162 1.69.162 2.294 0a4.693 4.693 0 0 0 2.893-2.353l.012-.026c.338-.674.443-1.152.443-2.003 0-.566-.024-.811-.114-1.147-.414-1.547-1.71-2.84-3.235-3.23-.55-.139-1.427-.176-1.93-.08zm1.336 2.405c.744.194 1.373.859 1.531 1.621a2.207 2.207 0 0 1-1.132 2.339l-.012.006a2.133 2.133 0 0 1-2.71-.743l-.005-.008c-1.075-1.619.438-3.707 2.328-3.214z"/>
    </symbol>
    <symbol id="icon-freezer" viewBox="0 0 32 32">
      <path d="M7.973 2.027c-1.04.208-1.907 1-2.28 2.08l-.12.346-.014 10.32c-.01 6.69.003 10.512.038 10.862.029.299.102.669.16.822.234.613.818 1.291 1.358 1.574.266.139.288.165.312.371.062.558.522 1.166 1.093 1.446.306.15.314.15 1.52.168 1.376.019 1.592-.018 2.038-.333a1.96 1.96 0 0 0 .728-.946l.115-.312h6.17l.035.146c.122.504.584 1.053 1.086 1.29.291.136.304.138 1.627.138s1.336-.002 1.627-.138a1.99 1.99 0 0 0 1.094-1.381c.058-.282.072-.299.376-.477.638-.371 1.162-1.043 1.39-1.792.094-.306.099-.782.099-10.986 0-8.862-.013-10.717-.074-10.96-.264-1.059-1.251-2.022-2.29-2.235-.334-.069-15.746-.074-16.091-.005zm15.998 2.207c.125.104.226.232.299.376l.003.007c.096.218.099.398.086 3.846l-.013 3.618H7.652V4.713l.147-.221c.093-.132.208-.242.342-.325l.005-.003c.197-.104.309-.106 7.91-.094l7.71.011.203.154zM9.893 5.594a.988.988 0 0 0-.527.545l-.002.007c-.07.168-.083.534-.083 2.422 0 2.166.003 2.232.114 2.461a.98.98 0 0 0 .876.545l.04-.001h-.002.027c.156 0 .305-.028.442-.08l-.009.003c.246-.151.434-.377.533-.646l.003-.009c.074-.27.075-4.344 0-4.613-.162-.584-.85-.893-1.411-.635zm14.454 14.329v5.765l-.144.216c-.097.138-.223.25-.37.327l-.006.003-.234.114h-7.586c-6.253 0-7.614-.013-7.757-.072a1.066 1.066 0 0 1-.564-.642l-.002-.008c-.064-.258-.086-11.394-.022-11.458.019-.019 3.782-.029 8.36-.021l8.325.013v5.763zm-14.291-5.517a1.03 1.03 0 0 0-.671.541l-.003.006c-.093.203-.101.386-.101 2.459 0 2.059.008 2.258.099 2.456.342.754 1.382.808 1.826.094l.126-.203v-4.64l-.141-.24a1.036 1.036 0 0 0-1.143-.472l.007-.002z"/>
    </symbol>
    <symbol id="icon-fuel" viewBox="0 0 32 32">
      <path d="M7.573 4.035a2.754 2.754 0 0 0-2.177 2.069l-.004.019c-.042.2-.059 3.403-.059 11.08V28h13.334v-9.973h1.966l.021 3.586c.018 3.149.03 3.622.107 3.88.338 1.118 1.141 1.971 2.198 2.333.368.126.51.147 1.04.147s.672-.021 1.04-.147a3.379 3.379 0 0 0 1.932-1.686l.009-.02c.374-.787.352-.32.352-7.8 0-7.518.022-7.035-.352-7.803-.264-.542-.658-.974-3.163-3.477l-2.378-2.373-1.413 1.413 1.373 1.374c.755.755 1.373 1.39 1.373 1.411 0 .022-.125.102-.28.181a3.365 3.365 0 0 0-1.651 1.89l-.007.024c-.299.925-.168 2.01.338 2.792.301.466.552.723.997 1.021.516.344 1.15.549 1.832.549.37 0 .726-.06 1.059-.172l-.023.007.299-.101-.029 9.984-.117.218a1.87 1.87 0 0 1-.326.406c-.635.574-1.635.376-2.054-.406-.115-.216-.117-.251-.142-3.685-.026-3.192-.035-3.486-.125-3.733a2.756 2.756 0 0 0-1.643-1.675l-.019-.006c-.28-.107-.44-.126-1.267-.147l-.946-.022v-4.792c0-3.293-.019-4.88-.059-5.074-.186-.888-.813-1.603-1.728-1.968l-.32-.128-4.427-.008a268.619 268.619 0 0 0-4.73.017l.17-.002zM16 10v3.333H8V6.667h8V10zm8.453.755c.493.168.88.717.88 1.245a1.38 1.38 0 0 1-1.331 1.333H24a1.4 1.4 0 0 1-.935-.399 1.307 1.307 0 0 1 0-1.87 1.303 1.303 0 0 1 1.396-.306l-.009-.003zM16 20.667v4.666H8V16h8v4.667z"/>
    </symbol>
     <symbol id="icon-fully-int" viewBox="0 0 46 32">
      <path d="M17.295.071c-.357.11-.647.297-.952.615-.168.175-.507.495-.757.711l-.451.394-13.269.075-.354.175C.973 2.306.49 2.774.251 3.259l-.214.435V27.4l.215.325c.149.224.336.381.609.507l.395.184 6.171.003.17.56c.691 2.277 3.335 3.571 5.649 2.767 1.27-.442 2.358-1.525 2.707-2.691l.162-.542c.024-.075 1.718-.095 8.137-.095h8.106l.047.291c.131.824 1.057 2.081 1.909 2.594.827.497 1.353.645 2.331.651.726.005.968-.025 1.409-.173a4.455 4.455 0 0 0 2.852-2.876l.009-.031.131-.419 1.704-.041c1.021-.024 1.785-.075 1.905-.128.33-.143.766-.571.914-.897.127-.281.138-.582.139-3.771 0-3.685-.014-3.856-.379-4.613-.263-.541-.846-1.123-1.426-1.425-.283-.147-1.069-.482-1.745-.745l-1.229-.477-1.467-3.361c-.807-1.848-1.549-3.503-1.649-3.677-.229-.394-.819-.953-1.231-1.163-.697-.355-1.022-.387-3.878-.387h-2.688v-.991h10.101l.339-.171c.671-.339 1.006-1.179.731-1.835-.168-.402-2.36-3.599-2.734-3.987a3.047 3.047 0 0 0-.755-.525L37.68.253l-.465-.216-9.867-.013C21.922.017 17.396.038 17.291.07zm19.924 1.516c.266.162 2.663 3.629 2.59 3.746-.03.049-1.925.075-5.381.075-3.512 0-5.384.027-5.48.079-.394.21-.377-.288-.377 11.003v10.48h-12.4l-.174-.539c-.565-1.758-2.365-3.047-4.242-3.04-1.848.007-3.637 1.305-4.157 3.018l-.17.56-5.981.001v-3.2H2.59v-1.371H1.447v-9.152c0-9.147 0-9.151.159-9.435.088-.155.269-.349.4-.429.231-.139.518-.147 6.907-.184l6.666-.038.343-.205c.189-.112.634-.498.99-.857l.646-.653h9.715c9.282 0 9.727.007 9.945.139zM19.341 7.392c-.35.185-.73.64-.827.989-.046.166-.074 3.209-.074 7.976l-.001 7.707.198.235.198.234h7.063l.427-.368V8.419l-.163-.305a1.69 1.69 0 0 0-.756-.749l-.01-.004c-.211-.106-.609-.122-3.009-.12-2.583.003-2.784.014-3.045.151zm5.528 1.338c.025.066.046 1.163.046 2.438v2.318h-5.029v-2.387c0-1.313.023-2.41.05-2.438.029-.029 1.139-.051 2.469-.051 2.134 0 2.423.015 2.464.121zm11.009.678c.235.131.491.35.6.514.186.282 2.76 6.096 2.76 6.235 0 .045-1.754.064-4.59.053l-4.591-.019-.019-3.529-.021-3.529 5.449.048.411.227zm-10.982 9.621.019 4.134h-5.03v-8.307l4.991.04.019 4.134zm16.705-.895c1.622.627 1.711.671 2.043.999.511.504.579.735.609 2.067l.026 1.2h-1.157v1.371h1.146l-.021 1.581-.021 1.582h-3.17l-.189-.559a5.21 5.21 0 0 0-.453-.977l.013.024c-.363-.566-1.105-1.218-1.744-1.533-1.765-.869-3.757-.547-5.13.827-.573.574-1.058 1.405-1.147 1.962l-.047.293h-2.342V17.6h10.202l1.379.534zm-28.572 6.944a2.888 2.888 0 0 1 1.416 1.395c.251.511.275.614.275 1.213 0 .569-.03.72-.23 1.146a3.005 3.005 0 0 1-2.244 1.723l-.017.002c-.898.158-1.918-.193-2.6-.895-.685-.704-.969-1.865-.682-2.777.271-.857 1.008-1.616 1.873-1.926.541-.194 1.67-.134 2.209.118zm24.954.024a3.306 3.306 0 0 1 1.382 1.345c.2.378.216.475.216 1.248 0 .809-.009.856-.258 1.314-1.158 2.136-4.24 2.086-5.302-.086-.278-.567-.346-1.415-.166-2.037.245-.841.952-1.582 1.817-1.902.631-.234 1.705-.179 2.311.117z"/>
    </symbol>
    <symbol id="icon-gas" viewBox="0 0 32 32">
      <path d="M18.667 1.731c-1.842.542-3.922 1.938-5.317 3.57a11.605 11.605 0 0 0-2.826 7.128l-.001.024c-.061 1.574.17 2.874.837 4.693.138.376.118.6-.075.851-.269.355-.787.459-1.226.246-.253-.123-.646-.594-1.042-1.243-1.126-1.854-1.318-4.354-.49-6.384.09-.218.155-.405.146-.413-.045-.046-.875.733-1.277 1.195-1.965 2.269-2.917 5.39-2.493 8.173.254 1.67 1.013 3.603 1.85 4.714a11.4 11.4 0 0 0 6.109 4.1l.079.018c.941.242 1.701.339 2.925.379 4.854.157 8.718-1.858 10.453-5.45.334-.691.616-1.55.754-2.293.147-.787.134-2.307-.024-3.048-.254-1.192-.621-2.005-1.466-3.262-.79-1.176-1.501-1.856-3.195-3.056-1.221-.864-1.584-1.155-2.106-1.686-1.997-2.024-2.565-5.304-1.37-7.904.099-.218.176-.413.168-.434-.008-.019-.195.018-.414.082zM17.058 14.04c.278.504.67 1.059 1.029 1.451.238.261 1.598 1.458 2.051 1.805.222.171.77.893.955 1.262.302.6.418 1.152.384 1.842a4.093 4.093 0 0 1-.503 1.863l.011-.021c-.55 1.066-1.394 1.744-2.669 2.154-1.112.355-2.109.285-3.245-.229-.464-.211-1.413-.862-1.416-.973 0-.019.069-.048.155-.066.334-.066 1.03-.373 1.402-.616a4.318 4.318 0 0 0 1.649-2.02l.01-.029c.157-.41.166-.478.165-1.13-.003-.622-.022-.766-.197-1.424-.32-1.205-.381-1.592-.376-2.416.002-.578.027-.837.112-1.146.12-.44.21-.694.246-.694.013 0 .118.174.237.387z"/>
    </symbol>
    <symbol id="icon-gearbox" viewBox="0 0 32 32">
      <path d="M5.666 2.934c-1.301.341-2.4 1.448-2.734 2.752a4.547 4.547 0 0 0 .006 1.992l-.006-.03A3.88 3.88 0 0 0 5 10.14l.023.01.462.222.018 1.818.018 1.816.2.405a2.6 2.6 0 0 0 1.203 1.202l.405.2 3.472.054.027 4.402.026 4.403.2.405c.264.533.67.939 1.203 1.203l.405.2 2.43.016c1.664.011 2.493-.002 2.63-.042.451-.133.782-.6.784-1.109a1.142 1.142 0 0 0-.659-1.082l-.007-.003c-.197-.091-.384-.099-2.357-.099-1.878-.002-2.152-.011-2.226-.086-.077-.075-.083-.506-.072-4.146l.014-4.062 2.267-.027c2.478-.029 2.413-.021 2.73-.355.429-.451.408-1.259-.043-1.682-.346-.325-.101-.31-5.349-.31-4.29 0-4.806-.008-4.882-.083-.072-.072-.083-.288-.082-1.56l.002-1.477.466-.222a3.87 3.87 0 0 0 2.087-2.475l.006-.027a4.547 4.547 0 0 0-.006-1.992l.006.03a3.935 3.935 0 0 0-2.726-2.749l-.028-.007a4.719 4.719 0 0 0-2.014.009l.031-.006zm1.531 2.384c.531.189.92.762.92 1.35v.013c0 .786-.638 1.424-1.424 1.424h-.027.001c-1 0-1.678-.934-1.384-1.909.085-.283.419-.672.702-.816.406-.208.754-.226 1.211-.062zM22.16 9.595a1.34 1.34 0 0 0-.357.251c-.318.341-.31.216-.309 4.165.002 3.405.006 3.627.101 3.829.4.867 1.662.899 2.13.053.069-.125.094-.36.115-1.093l.027-.933.773-.032c1.122-.046 1.589-.24 2.294-.95.438-.443.742-.974.848-1.488a4.92 4.92 0 0 0-.005-1.488l.004.027c-.226-1.093-1.291-2.158-2.384-2.384-.163-.034-.861-.058-1.653-.058-1.221.002-1.394.013-1.584.101zm2.915 2.394a.8.8 0 0 1-.001 1.357l-.003.002c-.152.094-.269.114-.693.117l-.51.003-.016-.744a6.666 6.666 0 0 1 .016-.845l-.002.024c.048-.125.976-.058 1.21.086zm-2.915 9.606a1.34 1.34 0 0 0-.357.251c-.315.336-.31.282-.309 3.499.002 2.755.008 2.962.101 3.162.124.263.335.468.596.581l.008.003c.318.133 2.234.117 2.782-.022a3.931 3.931 0 0 0 2.747-2.728l.007-.028c.144-.558.144-1.403 0-1.962a3.928 3.928 0 0 0-2.726-2.747l-.027-.007c-.346-.088-.589-.106-1.509-.104-.955.002-1.126.014-1.312.101zm2.427 2.415c.517.221.864.754.864 1.326 0 .752-.594 1.389-1.344 1.446l-.24.018-.014-1.413a23.29 23.29 0 0 1 .013-1.525l-.002.045c.035-.09.395-.038.723.102z"/>
    </symbol>
    <symbol id="icon-heart" viewBox="0 0 32 32">
      <path d="M8.72 2.509a8.173 8.173 0 0 0-3.298.927l.045-.022a8.335 8.335 0 0 0-2.263 1.599C1.797 6.405.944 8.08.635 10.053c-.087.549-.087 2.011 0 2.56a9.023 9.023 0 0 0 1.747 4.129l-.016-.022c.4.537 12.481 12.651 12.86 12.896.252.161.292.171.775.171s.523-.009.775-.171c.379-.245 12.46-12.359 12.86-12.896a8.983 8.983 0 0 0 1.725-4.056l.007-.051c.088-.549.087-2.071-.001-2.587-.511-2.996-2.221-5.324-4.885-6.655-1.211-.604-2.445-.88-3.92-.876-2.349.007-4.435.853-6.12 2.484l-.44.425-.44-.425A8.757 8.757 0 0 0 8.691 2.51l.032-.002zm2.16 3.222c1.207.335 1.821.733 3.173 2.057.557.545 1.109 1.051 1.227 1.121.187.115.277.131.72.131s.533-.016.72-.129c.117-.072.669-.577 1.227-1.124 1.356-1.331 1.961-1.72 3.2-2.064.491-.136.609-.148 1.467-.147.987 0 1.175.031 2 .324 1.345.479 2.535 1.555 3.176 2.873.811 1.665.811 3.455 0 5.12-.143.293-.385.701-.539.907s-2.748 2.845-5.765 5.867l-5.485 5.493-5.485-5.493c-3.017-3.021-5.612-5.661-5.765-5.867a6.633 6.633 0 0 1-.521-.867l-.018-.039c-.381-.746-.605-1.627-.605-2.56s.224-1.814.62-2.592l-.015.032c.756-1.552 2.135-2.652 3.869-3.087.5-.125.588-.132 1.467-.113.693.015.908.04 1.333.157z"/>
    </symbol>
    <symbol id="icon-hob" viewBox="0 0 32 32">
      <path d="M3.226 5.589a2.637 2.637 0 0 0-1.5 1.322l-.007.015-.198.402v18.677l.2.405c.264.534.67.941 1.203 1.203l.405.2h25.344l.405-.2a2.594 2.594 0 0 0 1.203-1.203l.2-.405V7.328l-.2-.405a2.621 2.621 0 0 0-1.188-1.196l-.015-.007-.405-.2-12.589-.011c-11.837-.011-12.606-.006-12.858.08zM10.8 16.667v8.8l-3.395.013c-3.035.013-3.405.005-3.48-.07-.077-.075-.085-.925-.085-8.742 0-7.819.008-8.667.085-8.744.075-.075.445-.083 3.48-.07l3.395.014v8.8zm17.277-8.744c.075.077.083.942.083 8.744 0 7.808-.008 8.667-.083 8.742-.077.075-.81.083-7.48.07l-7.397-.013-.014-8.747c-.006-4.811-.002-8.776.013-8.813.019-.053 1.55-.067 7.41-.067 6.642 0 7.394.008 7.469.083zm-3.957 1.68a1.315 1.315 0 0 0-.376.307l-.002.002c-.173.221-7.861 11.117-8.082 11.453a1.14 1.14 0 0 0 .17 1.462l.001.001c.499.485 1.165.498 1.637.035.202-.198 7.938-11.115 8.245-11.637.098-.165.126-.291.126-.558l.001-.042c0-.395-.201-.743-.507-.946l-.004-.003c-.309-.213-.869-.248-1.21-.074zm-17.179.589c-.261.078-.68.52-.754.792-.04.149-.054.754-.043 1.814l.016 1.592.162.23c.088.126.264.302.39.39.206.146.272.162.621.162s.416-.016.621-.162c.126-.088.302-.264.392-.39l.162-.23v-3.448l-.162-.23c-.251-.355-.538-.53-.91-.555a1.705 1.705 0 0 0-.506.038l.012-.002zm-.213 6.638c-.488.246-.73.691-.691 1.275.017.43.251.801.595 1.01l.005.003c.235.146.306.162.696.162.392 0 .462-.016.696-.162.172-.109.313-.251.419-.417l.003-.005c.146-.235.162-.306.162-.696s-.016-.461-.162-.696c-.237-.386-.578-.578-1.059-.6-.326-.016-.418.002-.664.126zm0 4c-.488.246-.73.691-.691 1.275.017.43.251.801.595 1.01l.005.003c.235.146.306.162.696.162.392 0 .462-.016.696-.162.172-.109.313-.251.419-.417l.003-.005c.146-.235.162-.306.162-.696s-.016-.461-.162-.696c-.237-.386-.578-.578-1.059-.6-.326-.016-.418.002-.664.126z"/>
    </symbol>
    <symbol id="icon-kitchen" viewBox="0 0 32 32">
      <path d="M24.827 2.926c-.275.126-1.941 1.826-2.702 2.758-2.421 2.963-3.723 5.666-4.306 8.928-.208 1.171-.28 2.067-.31 3.845-.032 1.904-.021 1.997.264 2.323.336.382.173.363 3.427.392l2.933.027v1.6l-.269.034a1.097 1.097 0 0 0-.727.348l-.001.001c-.307.323-.309.342-.309 2.829.002 2.107.01 2.299.101 2.496.069.137.152.255.252.357.293.274.466.309 1.499.309 1.046-.002 1.23-.045 1.518-.352.334-.357.31.645.309-12.832-.002-11.842-.005-12.29-.101-12.496a1.213 1.213 0 0 0-1.585-.563l.008-.003zM6.16 4.259a1.254 1.254 0 0 0-.612.678l-.003.009c-.042.139-.053.979-.038 2.762.022 2.827.018 2.789.398 3.691.574 1.362 1.934 2.557 3.322 2.92l.24.062.026 7.01c.03 7.731.002 7.138.355 7.474a1.228 1.228 0 0 0 1.638-.001l-.001.001c.354-.336.326.258.355-7.474l.027-7.01.24-.062c1.386-.363 2.746-1.558 3.32-2.92.381-.902.378-.864.4-3.691.014-1.782.002-2.622-.04-2.762a1.247 1.247 0 0 0-.606-.683l-.007-.003a1.275 1.275 0 0 0-1.328.211l.002-.001c-.336.32-.325.235-.358 2.918-.035 2.693-.038 2.72-.381 3.323-.254.45-.987 1.13-1.214 1.13-.037 0-.054-1.122-.054-3.389 0-2.942-.011-3.414-.083-3.586-.392-.941-1.787-.941-2.181 0-.072.171-.083.643-.083 3.586 0 2.267-.018 3.389-.054 3.389-.227 0-.958-.68-1.214-1.13-.344-.606-.347-.63-.381-3.323-.032-2.683-.022-2.598-.358-2.918a1.267 1.267 0 0 0-.832-.308c-.178 0-.347.036-.501.102l.008-.003zM24.136 18.76c-.021.051-.496.067-2.131.067-1.158 0-2.114-.019-2.125-.04-.035-.072.059-2.046.12-2.546.197-1.595.472-2.763.941-3.995.618-1.622 1.614-3.306 2.845-4.803l.347-.424.014 5.837c.008 3.211.002 5.867-.011 5.904z"/>
    </symbol>
    <symbol id="icon-microwave" viewBox="0 0 32 32">
      <path d="M1.878 4.642c-.762.11-1.506.776-1.757 1.571-.098.314-.098 19.261 0 19.574.259.821.989 1.458 1.805 1.574.49.072 27.706.067 28.154-.003a2.273 2.273 0 0 0 1.661-1.247l.006-.014.173-.365V6.266l-.173-.365a2.28 2.28 0 0 0-1.66-1.262l-.014-.002c-.413-.061-27.786-.058-28.195.003zM29.733 16v9.147H2.267l-.014-9.094c-.008-5.002-.002-9.123.011-9.16.021-.053 2.798-.064 13.747-.053l13.722.013V16zM6.357 9.23c-.837.166-1.573.955-1.718 1.842-.069.419-.069 9.437 0 9.856.15.915.888 1.683 1.773 1.846.19.035 2.613.05 6.928.04l6.634-.014.386-.181a2.273 2.273 0 0 0 1.299-1.757c.059-.464.059-9.261 0-9.725a2.283 2.283 0 0 0-1.285-1.751l-.014-.006-.386-.181-6.693-.008c-3.682-.005-6.797.013-6.923.038zm18.63 1.095a3.036 3.036 0 0 1-.193.045l-.036.006c-.171.037-.547.392-.634.595-.168.403-.05.994.258 1.28.253.237.469.282 1.325.282.877 0 1.072-.045 1.35-.309.232-.221.32-.432.325-.784l.001-.045c0-.395-.215-.739-.535-.921l-.005-.003c-.234-.136-.29-.146-.998-.158a9.301 9.301 0 0 0-.883.015l.026-.001zM19.467 16v4.587H6.827v-9.174h12.64V16zm5.183-.982c-.426.214-.57.462-.57.982 0 .526.146.773.581.986.286.141.31.144 1.146.126.85-.019.851-.019 1.083-.181a1.121 1.121 0 0 0 .004-1.86l-.004-.003-.232-.162-.862-.018c-.845-.016-.867-.013-1.146.128z"/>
    </symbol>
    <symbol id="icon-radio-linear" viewBox="0 0 32 32">
      <path d="m13.947 4.365-5.76 2.712-.555.062c-1.904.214-3.109.709-4.101 1.68-1.027 1.008-1.504 2.197-1.76 4.402-.08.677-.091 1.394-.091 5.446s.011 4.768.091 5.445c.254 2.182.704 3.325 1.715 4.357 1.008 1.027 2.197 1.504 4.402 1.76.698.082 1.549.091 8.112.091s7.414-.01 8.112-.091c2.205-.256 3.394-.733 4.402-1.76 1.011-1.032 1.461-2.174 1.715-4.357.08-.677.091-1.392.091-5.445s-.011-4.77-.091-5.446c-.256-2.205-.733-3.394-1.76-4.402-1.018-.997-2.16-1.453-4.277-1.709-.576-.069-1.586-.088-5.758-.109-2.838-.013-5.04-.043-5.013-.069.026-.026 1.65-.802 3.61-1.725 1.96-.922 3.611-1.722 3.672-1.776.192-.196.31-.464.31-.76v-.006c0-.598-.419-1.013-1.024-1.011-.261 0-.718.205-6.042 2.71zm7.866 4.701c1.768.053 2.421.11 3.2.277 1.786.384 2.603 1.208 2.982 3.006.182.859.211 1.258.278 3.851a79.544 79.544 0 0 1 0 4.933 72.282 72.282 0 0 1-.125 3.095l.01-.2c-.12 1.011-.397 1.963-.725 2.493-.571.926-1.65 1.437-3.461 1.64-.912.102-3.675.155-7.973.155s-7.061-.053-7.973-.155c-2.579-.29-3.626-1.138-4.05-3.28-.154-.773-.186-1.253-.253-3.747a77.77 77.77 0 0 1 .004-5.058l-.003.126c.037-1.357.09-2.659.117-2.893.267-2.25.954-3.28 2.531-3.805.798-.266 1.744-.381 3.574-.434 1.981-.056 9.997-.059 11.866-.003zm-13.37 2.001c-1.253.272-2.445 1.474-2.712 2.733a5.204 5.204 0 0 0 .005 1.763l-.005-.031c.27 1.275 1.467 2.469 2.746 2.739.525.11 14.533.112 15.046.002 1.283-.277 2.475-1.466 2.746-2.741a5.184 5.184 0 0 0-.005-1.761l.005.031c-.27-1.275-1.466-2.467-2.746-2.739-.509-.107-14.584-.104-15.08.005zm14.864 2.112a1.623 1.623 0 0 1 .01 2.968l-.01.004c-.282.131-.334.138-1.28.139l-.987.002-.027-.67c-.024-.603-.04-.691-.16-.867-.158-.234-.579-.462-.853-.462s-.694.229-.853.462c-.12.176-.136.264-.16.867l-.027.67H8.987l-.294-.139c-1.054-.501-1.307-1.827-.501-2.626.228-.234.526-.399.861-.459l.01-.001c.134-.024 3.328-.038 7.098-.035l6.853.008.294.139zM9.36 19.69c-.355.067-.954.362-1.269.626-.763.635-1.104 1.362-1.104 2.352 0 .774.195 1.354.635 1.882 1.272 1.531 3.486 1.536 4.747.008.256-.309.506-.816.584-1.186.082-.382.075-1.152-.013-1.478-.414-1.549-1.973-2.509-3.581-2.203zm7.52 2.052a.982.982 0 0 0-.56.926v-.002c0 .416.187.73.544.912.189.096.371.101 3.803.101 3.43 0 3.613-.005 3.802-.101a.964.964 0 0 0 .545-.867l-.001-.048v.002l.001-.046c0-.38-.22-.708-.539-.865l-.006-.003c-.189-.096-.368-.101-3.813-.098-3.195.002-3.635.011-3.776.086zm-6.55.021a1 1 0 0 1 .616.903v.001c0 .282-.096.496-.314.702-.598.565-1.578.128-1.578-.702 0-.283.096-.496.314-.704a.924.924 0 0 1 .968-.198l-.006-.002z"/>
    </symbol>
     <symbol id="icon-route" viewBox="0 0 32 32">
      <path d="M6.053 1.365c-2.256.334-3.95 1.806-4.544 3.946-.131.474-.146.618-.146 1.357 0 .738.014.883.146 1.355a5.422 5.422 0 0 0 3.148 3.585l.036.013c.58.234 1.252.369 1.957.369a5.365 5.365 0 0 0 4.587-2.579l.013-.024c1.426-2.4.734-5.547-1.558-7.104a6.252 6.252 0 0 0-1.702-.779l-.045-.011c-.438-.106-1.533-.181-1.891-.128zm1.125 2.693c1.046.192 1.92 1.083 2.106 2.149.32 1.846-1.331 3.45-3.16 3.067a2.807 2.807 0 0 1-1.841-1.425l-.007-.015a2.597 2.597 0 0 1-.267-1.158c0-.736.301-1.402.787-1.88a2.571 2.571 0 0 1 2.399-.735l-.017-.003zm7.014 1.366c-.178.078-.33.181-.46.308a1.32 1.32 0 0 0 .327 2.113l.007.003.253.125L18.906 8c4.574.027 4.587.027 4.8.142.646.349.898 1.08.586 1.704-.074.149-.187.32-.254.382s-3.65 2.12-7.96 4.573C8.449 18.959 5.794 20.5 3.147 22.053l4.806-2.605c-1.754 1.152-2.234 3.445-1.118 5.339.098.168.371.499.606.736.352.357.517.477.933.682.928.454.637.43 5.139.45 4.515.019 4.334.034 4.754-.386a1.32 1.32 0 0 0-.327-2.113l-.007-.003-.253-.125-3.92-.027c-3.891-.027-3.922-.027-4.133-.142-.658-.355-.904-1.094-.574-1.726.089-.165.201-.306.333-.424l.001-.001c.102-.08 3.702-2.144 8-4.587 9.468-5.133 12.074-6.642 14.674-8.159l-6.701 3.61c1.781-1.205 2.258-3.454 1.139-5.357a4.96 4.96 0 0 0-.606-.736 2.825 2.825 0 0 0-.917-.674l-.018-.007c-.939-.461-.546-.43-5.838-.443-4.158-.011-4.72-.003-4.928.072zm10.384 14.63a5.799 5.799 0 0 0-2.31.922l.02-.013c-.513.373-.951.81-1.312 1.306l-.012.017c-.336.498-.677 1.253-.813 1.797-.094.382-.118.63-.118 1.25 0 .93.114 1.467.469 2.218.309.651.613 1.091 1.069 1.547a5.628 5.628 0 0 0 2.514 1.418c.678.17 1.822.17 2.501 0a5.632 5.632 0 0 0 2.515-1.419l-.001.001a5.628 5.628 0 0 0 1.418-2.514c.17-.678.17-1.822 0-2.501a5.632 5.632 0 0 0-1.419-2.515l.001.001a5.581 5.581 0 0 0-2.447-1.401l-.039-.009c-.515-.126-1.566-.181-2.035-.106zm1.301 2.672A2.725 2.725 0 0 1 28 25.33v.003C28 26.773 26.773 28 25.333 28c-1.438 0-2.666-1.227-2.666-2.667 0-1.197.875-2.307 2.045-2.59.35-.085.806-.091 1.165-.016z"/>
    </symbol>
    <symbol id="icon-shower" viewBox="0 0 32 32">
      <path d="M4.853 4.165a1.336 1.336 0 0 0-.652.601l-.003.007c-.147.278-.155.826-.016 1.094.053.102.706.798 1.45 1.546l1.352 1.36-.189.294a7.857 7.857 0 0 0-1.275 4.312c0 1.552.446 2.999 1.216 4.221l-.019-.033.227.368-.666.672c-.366.37-.706.752-.754.848-.299.598-.038 1.354.579 1.678a1.395 1.395 0 0 0 1.133-.003l-.009.004C7.496 20.99 21.019 7.459 21.153 7.2c.139-.269.13-.814-.018-1.093-.322-.608-1.029-.875-1.616-.61-.157.069-.474.341-.912.776l-.672.669-.368-.227a8.243 8.243 0 0 0-2.481-1.019l-.057-.011a7.822 7.822 0 0 0-1.62-.165 8.001 8.001 0 0 0-4.374 1.293l.031-.019-.294.189-1.36-1.355c-1.446-1.443-1.616-1.571-2.08-1.571a1.383 1.383 0 0 0-.489.112l.009-.003zm9.837 4.07c.486.126 1.363.486 1.363.56 0 .042-7.216 7.258-7.258 7.258-.018 0-.12-.187-.227-.416-.411-.875-.597-2.062-.462-2.95a5.403 5.403 0 0 1 4.349-4.549l.033-.005c.586-.112 1.541-.067 2.202.102zm6.163 3.93c-.518.235-.77.624-.77 1.195 0 .416.074.603.354.882.224.228.536.37.881.37h.016-.001a1.329 1.329 0 0 0 1.157-.703l.003-.007c.136-.251.123-.853-.022-1.128-.227-.424-.69-.717-1.138-.717a1.383 1.383 0 0 0-.489.112l.009-.003zm5.334 1.333c-.52.235-.771.624-.771 1.195 0 .418.075.603.355.883.243.243.547.368.896.368.501-.007.935-.29 1.157-.703l.003-.007c.134-.25.122-.853-.024-1.126-.226-.426-.69-.718-1.136-.718a1.405 1.405 0 0 0-.489.112l.009-.004zm-9.334 2.667c-.518.235-.77.624-.77 1.195 0 .416.074.603.354.882.224.228.536.37.881.37h.016-.001a1.329 1.329 0 0 0 1.157-.703l.003-.007c.136-.251.123-.853-.022-1.128-.227-.424-.69-.717-1.138-.717a1.383 1.383 0 0 0-.489.112l.009-.003zm5.334 1.333c-.52.235-.771.624-.771 1.195 0 .418.075.603.355.883.243.243.547.368.896.368.501-.006.935-.29 1.157-.703l.003-.007c.134-.25.122-.853-.024-1.126-.226-.426-.69-.718-1.136-.718a1.405 1.405 0 0 0-.489.112l.009-.003zm-9.334 2.667c-.518.235-.77.624-.77 1.195 0 .416.074.603.354.882.224.228.536.37.881.37h.016-.001a1.329 1.329 0 0 0 1.157-.703l.003-.007c.136-.251.123-.853-.022-1.128-.227-.424-.69-.717-1.138-.717a1.383 1.383 0 0 0-.489.112l.009-.003zm5.334 1.333c-.52.235-.771.624-.771 1.195 0 .418.075.603.355.883.243.243.547.368.896.368.501-.006.935-.29 1.157-.703l.003-.007c.134-.25.122-.853-.024-1.126-.226-.426-.69-.718-1.136-.718a1.405 1.405 0 0 0-.489.112l.009-.003zm-4 4c-.52.235-.771.624-.771 1.195 0 .418.075.603.355.883a1.264 1.264 0 0 0 1.792 0c.28-.28.354-.466.354-.883 0-.414-.11-.69-.379-.942a1.416 1.416 0 0 0-.867-.361h-.004a1.405 1.405 0 0 0-.489.112l.009-.003z"/>
    </symbol>
    <symbol id="icon-toilet-paper" viewBox="0 0 32 32">
      <path d="M7.333 4.078c-1.216.267-2.277 1.197-3.134 2.749-.629 1.136-1.147 2.931-1.408 4.886-.115.864-.133 3.491-.029 4.339.19 1.554.546 3.035 1.005 4.176.741 1.845 1.901 3.154 3.189 3.597.382.131.506.147 1.072.144.579-.003.68-.019 1.072-.166.506-.19.939-.458 1.306-.8l.262-.245.002 2.074c.002 1.594.019 2.122.074 2.275a1.33 1.33 0 0 0 1.134.876h.005c.288.027.442-.016 2.214-.603l1.904-.632 1.885.626c1.037.344 1.962.626 2.056.626.093 0 1.045-.146 2.114-.325l1.946-.325 1.982.331c1.414.235 2.051.322 2.222.298a1.347 1.347 0 0 0 1.068-.941l.002-.009c.048-.174.059-1.974.043-7.482-.018-6.402-.03-7.326-.107-7.867-.219-1.522-.518-2.741-.928-3.787-.456-1.163-.971-1.979-1.718-2.725-.437-.434-.59-.549-1.019-.762-.877-.432-.234-.405-9.573-.402-6.674.003-8.382.018-8.64.074zm.997 2.701c.798.406 1.618 2.029 2.016 3.989.72 3.55.136 7.862-1.33 9.821-.546.728-1.013.893-1.515.531-.914-.658-1.714-2.63-2.04-5.04-.133-.97-.133-3.19 0-4.16.349-2.57 1.229-4.629 2.197-5.139.267-.141.402-.141.672-.002zm16 0c.792.403 1.618 2.03 2.014 3.968.293 1.427.286 1.283.309 8.04.019 6.022.016 6.28-.077 6.278-.053 0-.589-.083-1.189-.186a13.891 13.891 0 0 0-1.297-.182l-.063-.005c-.147 0-1.085.134-2.085.299l-1.816.302-1.947-.648c-1.277-.424-2.026-.646-2.176-.646-.178 0-1.875.514-2.6.786-.05.018-.069-1.395-.085-6.234-.018-5.528-.03-6.333-.11-6.893-.264-1.842-.658-3.27-1.23-4.459.131.314.053.152-.026-.01l-.21-.482c-.01-.022 2.77-.04 6.176-.04 6.182 0 6.194 0 6.411.112zM7.515 11.533c-.28.216-.538.67-.698 1.238-.176.622-.176 1.838 0 2.453.55 1.918 1.814 1.918 2.365 0 .176-.614.176-1.83 0-2.453C8.926 11.869 8.5 11.36 8 11.36c-.21 0-.301.032-.485.173z"/>
    </symbol>
    <symbol id="icon-tv" viewBox="0 0 32 32">
      <path d="M9.542 1.241c-.28.189-.422.439-.422.744 0 .144.027.314.059.379s1.093 1.152 2.356 2.419l2.298 2.304-6.553.038-.51.139a4.865 4.865 0 0 0-2.291 1.355l-.002.002a4.81 4.81 0 0 0-1.208 2.115l-.008.034-.141.51v5.68c0 5.339.006 5.705.099 6.101.414 1.767 1.658 3.092 3.421 3.642l.48.15h17.76l.48-.15c1.953-.609 3.263-2.174 3.492-4.17.043-.378.056-2.096.042-5.893-.019-5.338-.02-5.362-.138-5.808-.133-.503-.444-1.202-.707-1.588-.639-.936-1.686-1.673-2.819-1.98l-.51-.139-6.553-.038 2.298-2.304c1.263-1.267 2.324-2.355 2.356-2.419s.059-.235.059-.379v-.003a.862.862 0 0 0-.862-.862h-.003c-.144 0-.314.027-.379.059-.064.032-1.358 1.298-2.876 2.813L16 6.746l-2.76-2.754c-1.518-1.515-2.812-2.781-2.876-2.813-.205-.104-.622-.072-.822.062zm15.199 7.748c1.07.252 2.018 1.2 2.27 2.27.122.515.122 11.015.001 11.49-.144.565-.383.978-.821 1.417a2.996 2.996 0 0 1-1.346.824l-.021.005c-.302.094-.722.098-8.824.098s-8.522-.004-8.824-.098c-1.094-.337-1.916-1.182-2.188-2.246-.121-.475-.121-10.975.001-11.49.25-1.064 1.19-2.012 2.245-2.268.485-.117 17.01-.119 17.507-.002zM11.573 29.218a.966.966 0 0 0-.458.627l-.001.006c-.077.411.254.934.634 1.002.095.017 2.068.024 4.385.016l4.214-.016.179-.128c.201-.143.378-.483.378-.725s-.177-.582-.378-.725l-.179-.128-4.294-.014c-4.102-.014-4.301-.01-4.48.085z"/>
    </symbol>
    <symbol id="icon-users" viewBox="0 0 32 32">
      <path d="M20.8 5.259c-1.059.192-1.898.565-2.68 1.187-2.248 1.792-3.002 4.936-1.829 7.643.222.512.698 1.248 1.045 1.614l.264.28-.547.322a10.329 10.329 0 0 0-3.742 3.766l-.026.05c-.235.414-.794 1.701-.898 2.066-.11.392-.106 1.208.01 1.65.197.739.61 1.445 1.125 1.915.334.307 1.09.698 1.571.816.238.058 1.467.072 6.427.072h6.133l.4-.125c1.139-.355 1.963-1.066 2.458-2.115.264-.562.336-.957.304-1.666v-.01c0-.396-.083-.773-.233-1.115l.007.018c-.869-2.317-2.331-4.077-4.395-5.293a24.008 24.008 0 0 1-.732-.429l.198.112c-.011-.008.077-.122.195-.251.768-.834 1.285-1.882 1.514-3.074.098-.515.083-2.013-.027-2.514-.517-2.362-2.112-4.141-4.274-4.771-.408-.118-.605-.142-1.307-.157a9.565 9.565 0 0 0-.987.009l.027-.001zm1.586 2.901c1.781.621 2.731 2.816 2.051 4.738-.467 1.32-1.531 2.194-2.784 2.286-.52.038-.914-.046-1.446-.314a3.809 3.809 0 0 1-1.367-1.278l-.009-.015c-1.259-2.118-.274-4.867 1.97-5.496.402-.112 1.146-.075 1.586.078zm-14.359.885c-1.821.4-3.333 1.907-3.85 3.837-.126.472-.142.629-.142 1.386 0 .702.019.925.114 1.264.226.824.589 1.582 1.005 2.102l.176.219-.552.355a8.433 8.433 0 0 0-3.028 3.42l-.022.05c-.478 1.008-.514 1.957-.112 2.946.301.739 1.01 1.512 1.702 1.854.667.328.973.357 3.709.338 2.618-.018 2.611-.016 2.965-.352.282-.267.379-.526.379-.997 0-.49-.11-.763-.41-1.016-.349-.293-.326-.291-2.922-.291-2.658 0-2.618.005-2.922-.341-.214-.245-.218-.387-.016-.875a5.28 5.28 0 0 1 2.654-2.825l.032-.014c.632-.301 1.165-.422 2.091-.482 1.24-.077 1.92-.264 2.752-.755.456-.269 1.272-1.048 1.579-1.509 1.454-2.174 1.142-5.027-.758-6.933a5.096 5.096 0 0 0-2.097-1.299l-.036-.01c-.496-.158-1.731-.198-2.293-.074zm1.597 2.769c.917.238 1.643 1.077 1.798 2.07.187 1.208-.466 2.382-1.536 2.763-2.061.734-3.923-1.522-2.946-3.568a2.36 2.36 0 0 1 2.699-1.262l-.016-.003zm13.098 6.028c1.346.219 2.664.923 3.733 1.995a6.984 6.984 0 0 1 1.437 2.034c.301.626.336.898.181 1.357-.12.35-.554.795-.856.875-.158.043-1.845.056-5.84.045-5.549-.014-5.618-.014-5.802-.123-.358-.21-.693-.896-.619-1.27.09-.45.632-1.509 1.088-2.126a7.474 7.474 0 0 1 3.019-2.37l.048-.018a6.263 6.263 0 0 1 2.473-.499c.402 0 .796.037 1.178.109l-.039-.006z"/>
    </symbol>
    <symbol id="icon-van" viewBox="0 0 46 32">
      <path d="M17.295.071c-.357.11-.647.297-.952.615-.168.175-.507.495-.757.711l-.451.394-13.269.075-.354.175C.973 2.306.49 2.774.251 3.259l-.214.435V27.4l.215.325c.149.224.336.381.609.507l.395.184 6.171.003.17.56c.691 2.277 3.335 3.571 5.649 2.767 1.27-.442 2.358-1.525 2.707-2.691l.162-.542c.024-.075 1.718-.095 8.137-.095h8.106l.047.291c.131.824 1.057 2.081 1.909 2.594.827.497 1.353.645 2.331.651.726.005.968-.025 1.409-.173a4.455 4.455 0 0 0 2.852-2.876l.009-.031.131-.419 1.704-.041c1.021-.024 1.785-.075 1.905-.128.33-.143.766-.571.914-.897.127-.281.138-.582.139-3.771 0-3.685-.014-3.856-.379-4.613-.263-.541-.846-1.123-1.426-1.425-.283-.147-1.069-.482-1.745-.745l-1.229-.477-1.467-3.361c-.807-1.848-1.549-3.503-1.649-3.677-.229-.394-.819-.953-1.231-1.163-.697-.355-1.022-.387-3.878-.387h-2.688v-.991h10.101l.339-.171c.671-.339 1.006-1.179.731-1.835-.168-.402-2.36-3.599-2.734-3.987a3.047 3.047 0 0 0-.755-.525L37.68.253l-.465-.216-9.867-.013C21.922.017 17.396.038 17.291.07zm19.924 1.516c.266.162 2.663 3.629 2.59 3.746-.03.049-1.925.075-5.381.075-3.512 0-5.384.027-5.48.079-.394.21-.377-.288-.377 11.003v10.48h-12.4l-.174-.539c-.565-1.758-2.365-3.047-4.242-3.04-1.848.007-3.637 1.305-4.157 3.018l-.17.56-5.981.001v-3.2H2.59v-1.371H1.447v-9.152c0-9.147 0-9.151.159-9.435.088-.155.269-.349.4-.429.231-.139.518-.147 6.907-.184l6.666-.038.343-.205c.189-.112.634-.498.99-.857l.646-.653h9.715c9.282 0 9.727.007 9.945.139zM4.762 7.382a1.753 1.753 0 0 0-.87.834c-.152.297-.159.426-.159 2.848l.001 2.536.229.399c.169.294.334.459.629.629l.399.229h9.904l.399-.229c.295-.169.459-.335.629-.629l.229-.399.001-2.536c0-2.343-.01-2.559-.144-2.821a1.92 1.92 0 0 0-.873-.857l-.011-.005c-.286-.131-.613-.141-5.181-.141-4.576 0-4.895.009-5.181.141zm9.901 1.397c.099.143.118.491.118 2.269 0 1.776-.018 2.125-.118 2.269l-.119.169H5.342l-.119-.169c-.099-.144-.118-.493-.118-2.269 0-1.777.018-2.126.118-2.269l.119-.17h9.202l.119.17zm21.215.629c.235.131.491.35.6.514.186.282 2.76 6.096 2.76 6.235 0 .045-1.754.064-4.59.053l-4.591-.019-.019-3.529-.021-3.529 5.449.048.411.227zm5.723 8.726c1.622.627 1.711.671 2.043.999.511.504.579.735.609 2.067l.026 1.2h-1.157v1.371h1.146l-.021 1.581-.021 1.582h-3.17l-.189-.559a5.21 5.21 0 0 0-.453-.977l.013.024c-.363-.566-1.105-1.218-1.744-1.533-1.765-.869-3.757-.547-5.13.827-.573.574-1.058 1.405-1.147 1.962l-.047.293h-2.342V17.6h10.202l1.379.534zm-28.572 6.944a2.888 2.888 0 0 1 1.416 1.395c.251.511.275.614.275 1.213 0 .569-.03.72-.23 1.146a3.005 3.005 0 0 1-2.244 1.723l-.017.002c-.898.158-1.918-.193-2.6-.895-.685-.704-.969-1.865-.682-2.777.271-.857 1.008-1.616 1.873-1.926.541-.194 1.67-.134 2.209.118zm24.954.024a3.306 3.306 0 0 1 1.382 1.345c.2.378.216.475.216 1.248 0 .809-.009.856-.258 1.314-1.158 2.136-4.24 2.086-5.302-.086-.278-.567-.346-1.415-.166-2.037.245-.841.952-1.582 1.817-1.902.631-.234 1.705-.179 2.311.117z"/>
    </symbol>
    <symbol id="icon-water" viewBox="0 0 32 32">
      <path d="M15.592 2.346a2.258 2.258 0 0 0-.902.467l.003-.003a22.27 22.27 0 0 0-.885 1.03c-2.493 3.027-4.523 6.075-5.933 8.907-1.043 2.096-1.59 3.658-1.936 5.52-.078.429-.098.792-.096 1.866.002 1.469.072 2.034.394 3.182.986 3.509 3.587 5.896 7.222 6.63.93.187 1.483.24 2.541.24.514 0 1.149-.024 1.413-.054 4.965-.565 8.182-3.81 8.726-8.8.078-.723.034-2.432-.082-3.064-.33-1.819-.896-3.435-1.933-5.52-1.413-2.84-3.442-5.883-5.939-8.914-.319-.398-.627-.75-.949-1.089l.007.007c-.405-.341-1.125-.517-1.651-.406zm.827 3.104c3.179 3.902 5.666 7.997 6.712 11.058.413 1.205.595 2.133.64 3.234.078 1.973-.408 3.819-1.355 5.152a7.215 7.215 0 0 1-2.169 1.93l-.035.018c-1.739.96-4.522 1.229-6.746.651-1.867-.486-3.349-1.594-4.245-3.174-.83-1.464-1.181-3.531-.928-5.461.344-2.624 1.99-6.096 4.797-10.11.902-1.293 2.818-3.781 2.909-3.779.014 0 .203.218.419.482zm4.543 14.001c-.437.229-.59.478-.654 1.064-.086.779-.146 1.016-.373 1.469a2.997 2.997 0 0 1-.594.815l-.001.001c-.626.632-1.214.901-2.16.99-.674.064-.944.195-1.181.568a1.13 1.13 0 0 0-.198.642c0 .295.112.564.297.766l-.001-.001c.267.31.533.419 1.03.421 2.922.008 5.506-2.547 5.555-5.493.008-.424-.01-.541-.104-.72a1.178 1.178 0 0 0-.997-.651h-.003a.854.854 0 0 0-.619.132l.003-.002z"/>
    </symbol>
     <symbol id="icon-rating-star-filled" viewBox="0 0 34 32">
      <path fill="#ffc531" style="fill:var(--color1, #ffc531)" d="M15.701 8.062c-.736 1.397-1.429 2.684-1.54 2.857-.405.627-1.158 1.205-1.894 1.451-.154.051-1.598.322-3.209.602-1.613.279-2.944.523-2.959.538s.71.787 1.615 1.715c2.468 2.53 2.75 2.846 2.993 3.328.265.529.384 1.033.384 1.615 0 .267-.175 1.666-.418 3.358-.053.199-.196 1.195-.329 2.194l-.079.723c.009.009 1.267-.597 2.797-1.346 1.822-.892 2.91-1.393 3.155-1.453a4.222 4.222 0 0 1 1.698 0c.245.06 1.333.561 3.155 1.453 1.53.749 2.788 1.355 2.797 1.346.006-.009-.175-1.308-.405-2.889-.256-1.758-.418-3.061-.42-3.356 0-.604.115-1.105.378-1.636.235-.476.523-.798 2.999-3.337.905-.928 1.63-1.7 1.615-1.715-.359-.094-1.362-.282-2.37-.454l-.589-.083a64.891 64.891 0 0 1-3.678-.687l.47.086a3.884 3.884 0 0 1-1.886-1.436l-.008-.013c-.268-.432-.78-1.367-1.278-2.312l-.263-.547a69.526 69.526 0 0 0-1.598-2.99l.233.447c-.015 0-.629 1.146-1.365 2.543z"/>
    </symbol>
    <symbol id="icon-rating-star-empty" viewBox="0 0 32 32">
      <path fill="#f2f4f7" style="fill:var(--color1, #f2f4f7)" d="M14.72 7.56c-.69 1.31-1.34 2.516-1.444 2.678a3.644 3.644 0 0 1-1.737 1.346l-.025.008c-.136.044-1.456.288-2.934.542-1.478.252-2.73.476-2.784.498-.078.03.256.4 1.814 2.004 1.05 1.08 2.004 2.088 2.118 2.238.256.336.534.924.612 1.302.116.552.064 1.156-.334 3.89-.214 1.474-.372 2.68-.35 2.68s1.188-.562 2.592-1.252c1.498-.734 2.696-1.29 2.898-1.342.456-.12 1.252-.12 1.708 0 .202.052 1.4.608 2.898 1.342 1.404.69 2.57 1.252 2.592 1.252s-.136-1.206-.352-2.68c-.398-2.734-.448-3.336-.332-3.89.078-.378.356-.966.612-1.302.114-.15 1.068-1.158 2.118-2.238 1.558-1.604 1.892-1.974 1.814-2.004-.342-.088-1.286-.262-2.235-.422l-.549-.076a62.846 62.846 0 0 1-3.394-.624l.46.082a3.669 3.669 0 0 1-1.754-1.342l-.008-.012c-.246-.396-.727-1.272-1.193-2.157l-.251-.521a62.986 62.986 0 0 0-1.49-2.786l.21.402c-.014 0-.59 1.072-1.28 2.384z"/>
    </symbol>
    <symbol id="icon-location" viewBox="0 0 32 32">
      <path d="M14.56.114C12.23.356 9.898 1.292 7.91 2.78c-.672.504-1.96 1.792-2.462 2.464C3.908 7.3 3 9.612 2.77 12.074c-.078.832-.038 2.4.08 3.152.758 4.81 4.196 9.874 9.918 14.614.954.79 2.37 1.84 2.672 1.98a1.35 1.35 0 0 0 1.079.023l-.009.003c.496-.226 2.474-1.748 3.81-2.934 4.606-4.09 7.506-8.266 8.532-12.29.338-1.324.402-1.848.4-3.342 0-1.43-.056-1.916-.352-3.14a13.658 13.658 0 0 0-2.372-4.931l.024.033c-.502-.672-1.79-1.958-2.462-2.462A13.334 13.334 0 0 0 17.401.113l-.059-.005a20.116 20.116 0 0 0-2.848.01l.066-.004zm2.32 2.554a10.8 10.8 0 0 1 5.73 2.248l-.024-.018c.414.314 1.536 1.436 1.85 1.848.64.844 1.084 1.614 1.45 2.512 1.254 3.064 1.052 6.202-.61 9.522-1.084 2.164-2.64 4.24-4.822 6.422a40.906 40.906 0 0 1-3.922 3.475l-.092.069-.44.338-.44-.338a40.884 40.884 0 0 1-4.012-3.54l-.002-.002c-3.55-3.56-5.62-7.07-6.136-10.406a12.787 12.787 0 0 1 .002-3.073l-.006.061a11.014 11.014 0 0 1 2.177-5.065l-.019.025C7.878 6.334 9 5.212 9.414 4.898c1.772-1.344 3.558-2.026 5.892-2.25a9.134 9.134 0 0 1 1.574.02zm-1.626 5.418c-1.788.326-3.094 1.242-3.912 2.74-.456.836-.592 1.414-.592 2.508 0 .676.022.96.094 1.226.558 2.036 1.896 3.376 3.93 3.928.508.138 1.902.136 2.452-.004a5.35 5.35 0 0 0 3.918-3.889l.008-.037c.144-.564.144-1.884 0-2.452-.5-1.96-1.914-3.384-3.898-3.92-.314-.084-1.706-.154-2-.1zm1.288 2.604c.196.042.496.144.668.226.41.2 1.008.798 1.206 1.208.16.33.302.9.302 1.21s-.142.88-.302 1.208a3.31 3.31 0 0 1-1.191 1.2l-.015.008c-.33.16-.9.302-1.21.302s-.88-.142-1.21-.302a3.315 3.315 0 0 1-1.198-1.192l-.008-.016a3.364 3.364 0 0 1-.301-1.198l-.001-.01c0-.31.142-.88.302-1.21.198-.412.796-1.008 1.208-1.208.582-.282 1.144-.354 1.75-.226z"/>
    </symbol>
    <symbol id="icon-close" viewBox="0 0 32 32">
      <path d="M7.468 6.599c-.329.116-.757.554-.872.891a1.58 1.58 0 0 0 0 1.031l-.003-.011c.079.239.415.592 3.693 3.877L13.892 16l-3.606 3.613c-3.278 3.285-3.614 3.638-3.693 3.877-.191.581-.064 1.126.364 1.553.427.428.972.555 1.553.364.239-.079.592-.415 3.877-3.693L16 18.108l3.613 3.606c3.285 3.278 3.638 3.614 3.877 3.693.581.191 1.126.064 1.553-.364.428-.427.555-.972.364-1.553-.079-.239-.415-.592-3.693-3.877L18.108 16l3.606-3.613c3.278-3.285 3.614-3.638 3.693-3.877.191-.581.064-1.126-.364-1.553-.427-.428-.972-.555-1.553-.364-.239.079-.592.415-3.877 3.693L16 13.892l-3.613-3.606C9.102 7.008 8.749 6.672 8.51 6.593a1.7 1.7 0 0 0-1.054.009l.012-.003z"/>
    </symbol>
  </defs>
</svg>