<svg width="40" height="28" fill="none" xmlns="http://www.w3.org/2000/svg"><path d="M15.133.062c-.312.096-.566.26-.833.538-.147.153-.444.433-.662.622l-.395.345-5.805.033-5.805.033-.31.153C.851 2.018.429 2.427.22 2.852l-.187.381V23.976l.188.284c.13.196.294.333.533.444l.346.161 2.7.002 2.7.001.149.49c.605 1.992 2.918 3.125 4.943 2.421 1.111-.387 2.063-1.334 2.369-2.355l.142-.474c.021-.066 1.503-.083 7.12-.083h7.093l.041.255c.115.721.925 1.821 1.67 2.27.724.435 1.184.564 2.04.57.635.004.847-.022 1.233-.151a3.878 3.878 0 0 0 2.503-2.544l.115-.367 1.491-.036c.893-.021 1.562-.066 1.667-.112.289-.125.67-.5.8-.785.111-.246.121-.509.122-3.3 0-3.224-.012-3.374-.332-4.036-.23-.473-.74-.983-1.248-1.247-.248-.129-.935-.422-1.527-.652l-1.075-.417-1.284-2.941c-.706-1.617-1.355-3.065-1.443-3.217-.2-.345-.717-.834-1.077-1.018-.61-.311-.894-.339-3.393-.339h-2.352v-.867h8.838l.297-.15c.587-.297.88-1.032.64-1.606-.147-.352-2.065-3.149-2.392-3.489a2.643 2.643 0 0 0-.676-.466l-.407-.189-8.634-.011c-4.748-.006-8.708.012-8.8.04m17.434 1.327c.233.142 2.33 3.175 2.266 3.278-.026.043-1.684.066-4.708.066-3.073 0-4.711.024-4.795.069-.345.184-.33-.252-.33 9.628v9.17H14.15l-.152-.472c-.494-1.538-2.069-2.666-3.712-2.66-1.617.006-3.182 1.142-3.637 2.641l-.149.49H3.883l-2.616.001v-2.8h1v-1.2h-1v-8.008c0-8.004 0-8.007.139-8.256.077-.136.235-.305.35-.375.202-.122.453-.129 6.044-.161l5.833-.033.3-.179c.165-.098.555-.436.866-.75l.565-.571h8.501c8.122 0 8.511.006 8.702.122m-28.4 5.07c-.347.16-.589.392-.761.73-.133.26-.139.373-.139 2.492l.001 2.219.2.349c.148.257.292.402.55.55l.349.2h8.666l.349-.2c.258-.148.402-.293.55-.55l.2-.349.001-2.219c0-2.05-.009-2.239-.126-2.468a1.667 1.667 0 0 0-.774-.754c-.25-.115-.536-.123-4.533-.123-4.004 0-4.283.008-4.533.123m12.756.009c-.306.162-.639.56-.724.865-.04.145-.065 2.808-.065 6.979l-.001 6.744.173.206.173.205h6.18l.187-.161.187-.161V7.367L22.89 7.1a1.464 1.464 0 0 0-.67-.659c-.185-.093-.533-.107-2.633-.105-2.26.003-2.436.012-2.664.132M12.83 7.682c.087.125.103.43.103 1.985 0 1.554-.016 1.859-.103 1.985l-.104.148H4.674l-.104-.148c-.087-.126-.103-.431-.103-1.985 0-1.555.016-1.86.103-1.985l.104-.149h8.052l.104.149m8.93-.043c.022.058.04 1.018.04 2.133V11.8h-4.4V9.711c0-1.149.02-2.109.044-2.133.025-.025.997-.045 2.16-.045 1.867 0 2.12.013 2.156.106m9.633.593c.206.115.43.306.525.45.163.247 2.415 5.334 2.415 5.456 0 .039-1.535.056-4.016.046l-4.017-.017-.017-3.088-.018-3.088 2.384.021 2.384.021.36.199m-9.609 8.418.017 3.617H17.4v-7.269l2.183.018 2.184.017.017 3.617m14.617-.783c1.419.549 1.497.587 1.788.874.447.441.507.643.533 1.809l.023 1.05h-1.012v1.2H38.736l-.018 1.383-.018 1.384h-2.774l-.165-.489a4.592 4.592 0 0 0-.385-.834c-.318-.495-.967-1.066-1.526-1.341-1.544-.76-3.287-.479-4.489.724-.501.502-.926 1.229-1.004 1.717l-.041.256h-2.049v-8.2h8.927l1.207.467M11.4 21.943c.558.261.96.657 1.239 1.221.22.447.241.537.241 1.061 0 .498-.026.63-.201 1.003a2.621 2.621 0 0 1-1.979 1.51c-.786.138-1.678-.169-2.275-.783-.599-.616-.848-1.632-.597-2.43.237-.75.882-1.414 1.639-1.685.473-.17 1.461-.117 1.933.103m21.835.021c.484.237.957.697 1.209 1.177.175.331.189.416.189 1.092 0 .708-.008.749-.226 1.15-1.013 1.869-3.71 1.825-4.639-.075-.243-.496-.303-1.238-.145-1.782.214-.736.833-1.384 1.59-1.664.552-.205 1.492-.157 2.022.102" fill="#101828" fill-rule="evenodd"/></svg>